# xmcd
#
# Track frame offsets:
#	150
#	13436
#	26980
#	41684
#	55387
#	67153
#	77600
#	91862
#	102666
#	115133
#	129061
#	141736
#	155469
#	168394
#
# Disc length: 2411 seconds
#
# Revision: 1
# Processed by: cddbd v1.5.2PL0 Copyright (c) Steve Scherf et al.
# Submitted via: audiograbber 1.83.01
#
DISCID=c809690e
DTITLE=Gene Pitney - Ten Years Later His Greatest Hits Of All Times And New Fav
DTITLE=orites
DYEAR=1971
DGENRE=Country
TTITLE0=Town Without Pity
TTITLE1=The Man Who Shot Liberty Valance
TTITLE2=Looking Through The Eyes Of Love
TTITLE3=Twenty Hours From Tulsa
TTITLE4=It Hurts To Be In Love
TTITLE5=I'm Gonna Be Strong
TTITLE6=Last Chance To Turn Around
TTITLE7=Getting Together
TTITLE8=Stand By The One Who Loves Me
TTITLE9=Higher And Higher
TTITLE10=Weaving In And Out Of My Love
TTITLE11=Pretty Annabelle
TTITLE12=Rainmaker Girl
TTITLE13=Gene, Are You There
EXTD=
EXTT0=
EXTT1=
EXTT2=
EXTT3=
EXTT4=
EXTT5=
EXTT6=
EXTT7=
EXTT8=
EXTT9=
EXTT10=
EXTT11=
EXTT12=
EXTT13=
PLAYORDER=
